<?xml version="1.0" standalone="no"?>
<!DOCTYPE svg PUBLIC "-//W3C//DTD SVG 20010904//EN"
 "http://www.w3.org/TR/2001/REC-SVG-20010904/DTD/svg10.dtd">
<svg version="1.0" xmlns="http://www.w3.org/2000/svg"
 width="383.000000pt" height="383.000000pt" viewBox="0 0 383.000000 383.000000"
 preserveAspectRatio="xMidYMid meet">
<metadata>
Created by potrace 1.14, written by Peter Selinger 2001-2017
</metadata>
<g transform="translate(0.000000,383.000000) scale(0.100000,-0.100000)"
fill="#000000" stroke="none">
<path d="M130 2694 c0 -3 28 -41 63 -83 35 -42 71 -87 80 -101 16 -23 17 -64
17 -465 0 -242 0 -536 0 -652 l0 -213 105 0 105 0 0 520 c0 448 2 520 15 520
8 0 22 -12 32 -26 19 -26 212 -265 223 -274 3 -3 44 -52 91 -110 48 -58 100
-121 118 -140 17 -19 31 -39 31 -43 0 -28 49 23 225 233 253 303 294 350 305
350 6 0 11 -204 12 -512 l3 -513 103 -3 102 -3 0 656 0 655 80 93 c44 50 80
98 80 105 0 9 -32 12 -125 12 -106 0 -128 -3 -142 -18 -10 -9 -153 -176 -317
-370 -188 -222 -305 -352 -314 -350 -9 2 -123 131 -254 288 -132 157 -270 322
-309 368 l-69 82 -130 0 c-72 0 -130 -3 -130 -6z"/>
<path d="M2182 2608 c23 -51 45 -99 51 -105 5 -8 33 -13 68 -13 l59 0 2 -652
3 -653 322 -3 c367 -3 419 4 541 64 115 56 247 196 316 333 71 141 102 306 85
456 -34 311 -256 570 -552 645 -70 18 -114 19 -506 20 l-429 0 40 -92z m891
-148 c164 -51 286 -188 325 -365 49 -223 -1 -428 -137 -564 -64 -64 -102 -87
-191 -116 -46 -16 -90 -19 -275 -19 l-220 -1 -3 543 -2 542 219 0 c191 0 227
-3 284 -20z"/>
</g>
</svg>
